<svg version="1.0" xmlns="http://www.w3.org/2000/svg"
 width="512.000000pt" height="512.000000pt" viewBox="0 0 512.000000 512.000000"
 preserveAspectRatio="xMidYMid meet">

<g transform="translate(0.000000,512.000000) scale(0.100000,-0.100000)"
fill="#000000" stroke="none">
<path d="M2250 4527 c-25 -13 -223 -115 -440 -227 -217 -111 -432 -222 -476
-246 -124 -67 -178 -137 -178 -235 -1 -74 33 -127 109 -170 30 -17 55 -32 55
-33 0 -2 -13 -3 -29 -3 -45 0 -124 -44 -140 -78 -17 -36 -26 -121 -17 -168 6
-30 18 -41 109 -97 56 -35 189 -118 295 -184 l194 -120 -7 -42 c-6 -45 2 -54
53 -54 15 0 40 -7 56 -15 36 -19 36 -19 36 5 0 11 4 20 9 20 5 0 51 -29 102
-63 194 -132 619 -402 622 -395 1 1 1 54 -1 116 l-3 113 -50 35 c-27 20 -49
39 -49 43 0 4 26 16 58 26 31 11 61 23 67 27 5 4 26 8 47 8 24 0 65 13 110 36
61 31 613 341 953 534 61 35 129 74 153 87 51 29 53 49 7 69 -43 18 -49 18
-42 0 6 -16 -26 -36 -318 -198 -93 -52 -289 -161 -435 -243 -146 -81 -294
-161 -330 -177 -36 -16 -76 -35 -90 -42 -32 -17 -219 -78 -340 -111 -52 -15
-99 -31 -105 -37 -10 -11 30 -7 70 8 15 5 17 4 10 -4 -6 -7 -31 -14 -55 -18
-40 -5 -49 -2 -84 27 -64 54 -81 123 -50 197 28 69 120 143 176 142 17 -1 7
-9 -34 -30 -88 -46 -76 -50 17 -5 46 22 79 43 73 46 -16 10 22 19 57 15 29 -4
60 -16 193 -77 34 -16 66 -29 71 -29 4 0 11 28 15 62 3 34 17 85 30 113 20 45
22 55 10 76 -7 14 -25 31 -40 37 -14 7 -25 14 -23 16 2 2 87 47 189 101 464
244 929 497 941 511 7 9 8 18 3 23 -12 11 -235 107 -1025 442 -141 59 -291
124 -334 144 -107 49 -139 52 -195 22z m503 -480 c14 -21 12 -25 -34 -75 -41
-45 -93 -77 -361 -224 -172 -94 -317 -175 -322 -179 -6 -5 20 -22 60 -40 188
-86 474 -229 474 -238 0 -5 -5 -21 -11 -35 -8 -18 -9 -36 -1 -65 5 -23 7 -41
3 -41 -4 0 -130 61 -280 135 -151 75 -275 134 -278 131 -9 -9 -33 -112 -33
-144 l0 -33 -34 26 c-30 23 -40 25 -86 19 l-53 -7 6 29 c3 16 14 62 25 103
l21 73 -135 64 c-74 35 -194 93 -268 128 -86 41 -138 72 -146 86 -26 49 -4
130 37 130 7 0 126 -56 263 -125 137 -69 257 -125 265 -125 8 0 15 6 15 13 0
7 44 34 98 61 53 26 214 111 357 189 239 129 313 161 386 166 9 1 23 -9 32
-22z m-273 -1297 c-8 -5 -22 -10 -30 -10 -13 0 -13 1 0 10 8 5 22 10 30 10 13
0 13 -1 0 -10z"/>
<path d="M3840 3905 c0 -3 16 -22 36 -41 40 -40 61 -38 23 2 -25 26 -59 49
-59 39z"/>
<path d="M1188 3171 c24 -23 49 -41 55 -41 7 0 5 -5 -3 -13 -8 -8 -73 -31
-145 -52 -71 -21 -131 -39 -133 -40 -3 -3 33 -28 328 -224 l171 -114 -20 -21
c-12 -12 -33 -51 -48 -87 -39 -90 -39 -208 0 -291 14 -32 22 -58 17 -58 -13 0
-70 69 -70 85 0 15 -60 52 -60 38 0 -5 -5 -1 -10 7 -5 8 -10 10 -10 4 0 -7
-11 -9 -25 -6 -17 3 -25 10 -23 21 3 16 -66 90 -86 92 -6 0 -19 2 -29 4 -14 3
-18 -1 -14 -16 8 -28 -10 -33 -47 -14 l-33 18 -61 -38 c-162 -100 -241 -262
-218 -449 l7 -56 39 37 c22 20 37 40 35 44 -7 10 5 39 16 39 5 0 9 -7 9 -16 0
-11 5 -14 18 -9 9 4 24 9 33 12 9 2 26 28 38 57 25 61 90 155 108 156 6 0 18
-6 25 -13 7 -7 103 -55 213 -107 212 -100 343 -170 645 -347 47 -27 123 -71
170 -98 47 -26 96 -56 110 -65 14 -9 62 -40 107 -68 l83 -51 29 25 c16 13 32
24 37 24 4 0 37 -17 73 -39 36 -21 126 -72 200 -114 112 -63 137 -74 152 -64
15 9 21 8 34 -8 8 -11 13 -28 11 -38 -3 -11 16 -1 57 31 54 42 244 172 457
311 l65 43 -105 -7 c-58 -4 -205 -9 -326 -10 l-222 -3 -170 -46 c-94 -25 -183
-46 -198 -46 -37 0 -108 73 -123 125 -25 91 -8 212 42 296 34 56 82 94 157
123 180 71 950 327 961 320 5 -3 9 -11 9 -17 0 -7 -4 -6 -11 3 -8 12 -10 10
-5 -9 3 -14 0 -31 -6 -38 -10 -12 289 87 457 152 39 15 133 49 210 76 124 44
178 71 164 82 -2 2 -33 18 -68 36 -52 27 -68 31 -85 22 -12 -6 -124 -43 -251
-82 -289 -89 -449 -138 -645 -199 -444 -139 -655 -200 -667 -195 -8 3 -13 13
-11 22 3 13 -19 32 -82 69 -47 28 -161 99 -255 159 -316 200 -422 265 -431
265 -5 0 -20 -16 -34 -34 -31 -43 -60 -34 -60 18 0 18 -5 47 -11 65 -11 32
-24 42 -259 193 -47 30 -139 90 -205 132 -102 66 -113 72 -77 37z m272 -187
c0 -2 -9 0 -20 6 -11 6 -20 13 -20 16 0 2 9 0 20 -6 11 -6 20 -13 20 -16z m45
-24 c3 -6 -1 -7 -9 -4 -18 7 -21 14 -7 14 6 0 13 -4 16 -10z m65 -47 c0 -7
-39 17 -46 28 -3 6 5 3 20 -6 14 -10 26 -19 26 -22z m365 -523 c4 -6 -8 -28
-25 -49 -58 -74 -75 -126 -74 -231 0 -66 6 -107 17 -134 17 -39 17 -39 -2 -22
-60 54 -76 227 -30 326 42 91 95 141 114 110z m160 -110 c3 -5 -6 -25 -20 -44
-66 -86 -82 -208 -44 -331 11 -37 19 -69 16 -71 -2 -2 -19 24 -37 58 -58 109
-52 250 17 356 26 40 55 54 68 32z"/>
<path d="M3915 2975 c-161 -58 -1257 -415 -1273 -415 -7 0 -12 -4 -12 -10 0
-5 6 -10 13 -10 6 0 147 44 312 99 165 54 474 155 686 225 212 69 401 132 420
140 l34 15 -30 -1 c-16 0 -84 -20 -150 -43z"/>
<path d="M3955 2839 c-66 -22 -228 -73 -360 -113 -369 -114 -729 -225 -848
-262 -60 -18 -112 -35 -115 -38 -21 -22 -3 -17 698 199 96 29 272 83 390 119
240 74 360 115 375 127 17 16 -18 8 -140 -32z"/>
<path d="M4050 2158 c-32 -13 -269 -99 -516 -187 -213 -76 -253 -95 -189 -87
38 5 135 12 325 23 47 2 159 4 250 3 142 -1 371 16 457 35 14 3 31 22 44 46
l20 41 -35 54 c-20 29 -36 59 -36 65 0 12 1 12 -111 -25 l-87 -29 -32 36 c-33
39 -48 43 -90 25z"/>
<path d="M740 1903 c1 -5 7 -19 15 -33 l14 -25 -1 33 c-1 20 -6 32 -15 32 -7
0 -13 -3 -13 -7z"/>
<path d="M3978 1869 l34 -30 -41 -35 c-46 -40 -50 -60 -20 -98 28 -35 51 -33
152 14 47 22 99 43 116 46 50 10 45 20 -22 39 -34 9 -100 35 -146 56 -100 47
-117 49 -73 8z m189 -88 c17 -9 6 -14 -89 -35 -29 -7 -58 14 -58 41 0 13 10
15 65 10 36 -4 73 -11 82 -16z"/>
<path d="M812 1671 c-71 -55 -72 -56 -42 -59 20 -2 39 -15 57 -37 26 -32 27
-33 52 -17 14 10 26 17 26 17 6 0 66 -44 87 -63 14 -14 36 -27 49 -29 12 -2
36 -10 54 -19 28 -13 37 -25 49 -64 6 -20 21 -31 37 -27 10 3 21 0 24 -7 3 -8
7 -8 11 2 3 6 12 12 20 12 9 0 13 -4 9 -9 -10 -17 45 -51 73 -45 21 4 41 -5
85 -36 43 -30 67 -40 91 -38 25 1 39 -6 64 -31 17 -18 32 -37 34 -42 3 -9 24
-16 53 -18 6 -1 22 -12 37 -25 14 -14 29 -22 32 -19 3 4 6 2 6 -3 0 -5 12 -11
27 -12 15 -1 29 -6 33 -11 3 -6 19 -9 36 -9 19 1 40 -8 58 -26 16 -14 31 -24
34 -22 6 7 31 -18 25 -26 -2 -5 1 -8 7 -8 6 0 27 -11 48 -24 20 -13 53 -27 73
-30 19 -3 46 -16 58 -27 13 -12 46 -30 75 -41 28 -11 58 -26 67 -34 9 -8 39
-17 65 -19 31 -3 55 -12 64 -23 18 -21 64 -41 103 -44 17 -2 26 -7 23 -15 -3
-7 7 -22 22 -33 14 -12 28 -17 30 -12 2 6 16 3 34 -6 38 -18 142 -30 118 -12
-8 6 -60 36 -115 67 -55 31 -101 60 -103 65 -2 4 -10 8 -17 8 -8 0 -19 8 -24
18 -6 9 -11 14 -11 9 0 -9 -72 27 -127 64 -23 16 -44 29 -47 29 -5 0 -348 196
-496 283 -94 55 -515 298 -625 360 -38 22 -106 61 -150 87 -44 26 -89 50 -100
53 -14 3 -42 -12 -93 -52z"/>
<path d="M4217 1662 c-20 -4 -22 -33 -4 -51 10 -10 9 -15 -3 -23 -8 -5 -132
-82 -275 -171 -380 -238 -380 -238 -624 -401 -123 -83 -219 -152 -212 -154 6
-2 11 -15 11 -28 0 -14 6 -27 14 -30 7 -3 58 26 112 64 170 118 459 306 874
567 69 43 127 82 130 86 3 3 29 21 58 39 28 17 52 36 52 40 0 13 -114 66 -133
62z"/>
<path d="M2361 1405 c-18 -30 -44 -83 -58 -117 -48 -119 -41 -287 15 -353 15
-18 112 -81 112 -73 0 2 -11 25 -25 52 -20 39 -25 64 -25 122 0 111 32 197
123 335 l18 27 -55 31 c-31 17 -59 31 -64 31 -4 0 -23 -25 -41 -55z"/>
<path d="M2750 641 c14 -28 25 -32 52 -22 22 8 21 9 -16 25 -48 20 -49 20 -36
-3z"/>
</g>
</svg>
